<svg xmlns="http://www.w3.org/2000/svg" viewBox="-8 -8 144 144"><path fill="#8dc141" d="M106.25 65.03v-1.85l-1.62 1.75V60.8h-1.22v4.11l-1.6-1.73v1.85l2.22 2.4 2.22-2.4zM93.21 94.59l1.31-1.31-2.38.08 2.92-2.91-.87-.87-2.9 2.9.08-2.36-1.31 1.32-.12 3.27 3.27-.12zm-30.13 11.67h1.86l-1.75-1.62h4.13v-1.23h-4.11l1.73-1.6h-1.86l-2.39 2.23 2.39 2.22zM33.53 93.21l1.31 1.31-.09-2.38 2.92 2.92.86-.87-2.89-2.9 2.35.08-1.31-1.31-3.27-.12.12 3.27zM21.86 63.09v1.85l1.62-1.75v4.13h1.23v-4.1l1.6 1.72v-1.85l-2.23-2.4-2.22 2.4zm13.05-29.56l-1.32 1.31 2.39-.08-2.92 2.91.87.87 2.9-2.9-.09 2.36 1.31-1.32.12-3.27-3.26.12zm30.12-11.67h-1.85l1.75 1.63H60.8v1.22h4.1l-1.72 1.6h1.85l2.4-2.22-2.4-2.23zm29.56 13.05l-1.32-1.31.09 2.38-2.92-2.92-.86.87 2.9 2.9-2.36-.08 1.32 1.31 3.27.12-.12-3.27zm10.48 19.17l-.48-1.79-1.12 2.11-1.06-3.99-1.19.32 1.07 3.97-2-1.26.48 1.79 2.77 1.75 1.53-2.9zM100.12 86l.92-1.6-2.28.7 2.07-3.57-1.06-.61-2.06 3.55-.52-2.3-.93 1.61.73 3.19 3.13-.97zm-26.08 19.07l1.79-.47-2.11-1.12 3.99-1.07-.32-1.18-3.97 1.06 1.26-2-1.79.48-1.74 2.78 2.89 1.52zm-31.93-4.95l1.61.92-.7-2.27 3.57 2.06.61-1.06-3.55-2.05 2.3-.53-1.61-.93-3.19.73.96 3.13zM23.04 74.04l.48 1.79 1.12-2.11 1.06 3.99 1.19-.32-1.06-3.96 1.99 1.25-.48-1.79-2.77-1.74-1.53 2.89zM28 42.12l-.93 1.61 2.28-.71-2.06 3.58 1.06.6 2.05-3.54.53 2.29.92-1.61-.72-3.19-3.13.97zm26.08-19.07l-1.8.48 2.11 1.11-3.98 1.07.32 1.18 3.96-1.06-1.25 2 1.79-.48 1.74-2.77-2.89-1.53zM86 28l-1.61-.93.71 2.29-3.58-2.07-.6 1.06 3.54 2.06-2.29.52 1.6.93 3.19-.73L86 28zm15.09 15.8l-.93-1.6-.53 2.32-2.06-3.57-1.06.61 2.05 3.56-2.25-.69.92 1.6 3.13.97.73-3.2zm3.48 32.13l.48-1.8-2.02 1.27 1.06-3.98-1.18-.32-1.06 3.96-1.11-2.08-.47 1.8 1.53 2.88 2.77-1.73zm-20.26 25.16l1.61-.93-2.33-.52 3.58-2.07-.61-1.05L83 98.56l.69-2.25-1.6.93-.97 3.12 3.19.73zm-32.12 3.49l1.79.47-1.26-2.02 3.98 1.07.32-1.18-3.96-1.07 2.08-1.1-1.79-.48-2.9 1.53 1.74 2.78zM27.02 84.32l.93 1.6.53-2.32 2.06 3.57 1.07-.61-2.06-3.55 2.26.69-.93-1.61-3.13-.96-.73 3.19zM23.55 52.2l-.48 1.79 2.02-1.27-1.07 3.99 1.18.31 1.07-3.96 1.1 2.08.47-1.79-1.52-2.89-2.77 1.74zM43.8 27.03l-1.6.93 2.32.53-3.57 2.06.61 1.06 3.55-2.05-.69 2.26 1.61-.93.96-3.13-3.19-.73zm77.9 40.46h2.81l-2.65-2.46h6.25v-1.85h-6.22l2.62-2.44h-2.81l-3.64 3.37 3.64 3.38zm-19.31 39.75l1.99 1.99-.13-3.62 4.42 4.43 1.31-1.31-4.4-4.4 3.57.13-1.99-1.99-4.96-.18.19 4.95zm-41.76 14.45v2.82l2.46-2.65v6.26h1.85v-6.23l2.44 2.62v-2.82L64 118.06l-3.37 3.63zm-39.75-19.3l-1.99 1.99 3.61-.13-4.42 4.42 1.31 1.31 4.4-4.4-.13 3.57 1.99-1.98.18-4.97-4.95.19zM6.42 60.63H3.6l2.65 2.46H0v1.85h6.22L3.6 67.38h2.82L10.05 64l-3.63-3.37zm19.31-39.75l-1.99-1.99.13 3.61-4.42-4.42-1.31 1.31 4.4 4.4-3.58-.13 1.99 1.99 4.96.18-.18-4.95zM67.49 6.42V3.61l-2.46 2.65V0h-1.86v6.23l-2.43-2.62v2.81l3.38 3.63 3.37-3.63zm39.75 19.31l1.99-2-3.61.14 4.42-4.42-1.32-1.31-4.4 4.4.13-3.58-1.98 1.99-.18 4.96 4.95-.18zm13.38 26.72l2.72-.72-3.19-1.69 6.03-1.63-.48-1.78-6.01 1.61 1.9-3.03-2.71.73-2.64 4.2 4.38 2.31zm-8.36 43.4l2.44 1.41-1.06-3.46 5.41 3.13.92-1.61-5.38-3.11 3.48-.8-2.44-1.41-4.83 1.11 1.46 4.74zm-36.6 24.77l.73 2.72 1.69-3.19 1.62 6.04 1.79-.48-1.61-6.02 3.03 1.9-.72-2.71-4.21-2.64-2.32 4.38zm-43.39-8.36l-1.41 2.43 3.45-1.06-3.12 5.42 1.6.93 3.12-5.39.8 3.48 1.4-2.43-1.1-4.84-4.74 1.46zM7.49 75.66l-2.71.73 3.19 1.69-6.04 1.62.48 1.79 6.02-1.61-1.91 3.03 2.72-.72 2.64-4.21-4.39-2.32zm8.36-43.39l-2.43-1.41 1.06 3.45-5.41-3.12-.93 1.61 5.39 3.11-3.48.8 2.43 1.41 4.83-1.11-1.46-4.74zm36.6-24.78l-.73-2.71-1.69 3.19-1.61-6.04-1.8.49 1.61 6.01-3.03-1.9.73 2.71 4.2 2.64 2.32-4.39zm43.4 8.37l1.41-2.44-3.46 1.07 3.13-5.42-1.61-.93-3.11 5.39-.8-3.49L90 12.48l1.11 4.84 4.74-1.46zm19.84 22.35l2.44-1.41-3.52-.8 5.41-3.13-.93-1.61-5.39 3.12 1.05-3.42-2.44 1.4-1.45 4.74 4.83 1.11zm3.15 44.08l2.72.73-1.92-3.06 6.04 1.61.48-1.79-6.01-1.61 3.16-1.67-2.72-.73-4.38 2.32 2.63 4.2zm-28.93 33.4l1.4 2.44.81-3.53 3.13 5.42 1.6-.93-3.11-5.39 3.42 1.05-1.41-2.44-4.74-1.45-1.1 4.83zm-44.08 3.15l-.73 2.72 3.06-1.91-1.62 6.03 1.79.48 1.61-6.01 1.68 3.16.73-2.71-2.33-4.39-4.19 2.63zm-33.4-28.93l-2.44 1.41 3.52.81-5.41 3.12.92 1.6 5.39-3.11-1.05 3.41 2.44-1.39 1.46-4.75-4.83-1.1zM9.27 45.82l-2.72-.72 1.92 3.06-6.03-1.62-.48 1.8 6.01 1.61-3.17 1.67 2.72.73 4.38-2.32-2.63-4.21zm28.94-33.39L36.8 9.99l-.81 3.52-3.12-5.41-1.61.93 3.12 5.39-3.43-1.05 1.41 2.43 4.74 1.46 1.11-4.83zm44.08-3.16l.73-2.71-3.06 1.92 1.62-6.05-1.8-.47-1.61 6.01-1.68-3.16-.72 2.71 2.32 4.39 4.2-2.64zm13.15 48.92l-1.47.19 1.56 1.11-3.28.43.13.97 3.26-.43-1.21 1.45 1.48-.19 1.67-2.01-2.14-1.52zm14.23-1.23l.3 2.29 1.72-2.43.68 5.12 1.52-.2-.67-5.09 2.27 1.88-.3-2.3-3.16-2.61-2.36 3.34zM90.4 82.1l-1.18-.91.32 1.89-2.62-2.01-.6.78 2.61 2-1.88.18 1.18.9 2.61-.25-.44-2.58zm10.93 9.19l-1.41 1.83 2.94-.49-3.14 4.09 1.21.93 3.13-4.07.28 2.94 1.41-1.84-.39-4.07-4.03.68zm-31.4 4.16l-.2-1.48-1.1 1.56-.43-3.28-.97.13.43 3.26-1.46-1.2.2 1.47 2.01 1.66 1.52-2.12zm1.23 14.22l-2.3.3 2.44 1.72-5.12.68.2 1.51 5.09-.66-1.88 2.27 2.3-.31 2.61-3.14-3.34-2.37zM46.02 90.4l.9-1.18-1.88.33 2.01-2.62-.78-.6-2 2.61-.18-1.88-.9 1.17.25 2.61 2.58-.44zm-9.19 10.94l-1.84-1.42.5 2.94-4.09-3.14-.93 1.22 4.07 3.12-2.94.28 1.84 1.41 4.08-.38-.69-4.03zm-4.15-31.4l1.47-.2-1.56-1.1 3.27-.44-.13-.97-3.25.43 1.2-1.45-1.47.19-1.67 2.02 2.14 1.52zm-14.23 1.23l-.3-2.3-1.73 2.43-.68-5.11-1.51.2.67 5.08-2.27-1.88.3 2.3 3.15 2.62 2.37-3.34zm19.26-25.15l1.18.9-.32-1.87 2.62 2 .6-.78-2.61-2 1.88-.17-1.18-.9-2.6.24.43 2.58zm-10.93-9.19l1.42-1.84-2.95.51 3.14-4.1-1.21-.92-3.12 4.07-.28-2.95-1.41 1.85.38 4.07 4.03-.69zm31.4-4.15l.2 1.47 1.1-1.56.44 3.27.97-.12-.43-3.26 1.45 1.2-.19-1.47-2.02-1.66-1.52 2.13zm-1.23-14.23l2.3-.3-2.43-1.73 5.11-.67-.2-1.51-5.08.66 1.88-2.27-2.3.31-2.61 3.14 3.33 2.37zM82.1 37.72l-.91 1.18 1.88-.32-2 2.61.77.6 2.01-2.6.17 1.87.9-1.18-.24-2.6-2.58.44zm9.19-10.93l1.83 1.41-.5-2.94 4.1 3.14.92-1.21-4.07-3.13 2.95-.28-1.85-1.4-4.07.37.69 4.04zm1.56 23.48l-1.37.56 1.79.66-3.05 1.27.37.91 3.04-1.26-.79 1.72 1.37-.57 1.1-2.38-2.46-.91zm13.43-4.87l.88 2.14 1.04-2.8 1.97 4.76 1.41-.58-1.96-4.74 2.68 1.22-.88-2.14-3.72-1.7-1.42 3.84zM94.17 74.67l-1.37-.57.79 1.73-3.05-1.26-.37.91 3.04 1.25-1.77.66 1.37.57 2.46-.91-1.1-2.38zm12.94 6.04l-.89 2.14 2.71-1.24-1.97 4.77 1.41.58 1.96-4.74 1.03 2.76.89-2.13-1.42-3.84-3.72 1.7zM77.85 92.86l-.57-1.38-.66 1.79-1.26-3.05-.91.38 1.26 3.03-1.72-.78.57 1.37 2.38 1.09.91-2.45zm4.87 13.42l-2.14.88 2.8 1.04-4.77 1.97.58 1.42 4.75-1.97-1.23 2.69 2.14-.89 1.71-3.72-3.84-1.42zM53.45 94.17l.57-1.37-1.74.8 1.27-3.05-.91-.37-1.26 3.03-.65-1.77-.57 1.37.91 2.45 2.38-1.09zm-6.05 12.94l-2.13-.89 1.24 2.72-4.77-1.98-.58 1.42 4.74 1.96-2.77 1.02 2.14.89 3.84-1.42-1.71-3.72zM35.26 77.85l1.38-.57-1.79-.66 3.04-1.26-.37-.91-3.03 1.26.78-1.71-1.37.56-1.09 2.38 2.45.91zm-13.42 4.88l-.89-2.15-1.03 2.8-1.98-4.77-1.41.59 1.96 4.74-2.68-1.23.89 2.15 3.72 1.7 1.42-3.83zm12.1-29.28l1.38.57-.8-1.73 3.05 1.26.37-.91-3.03-1.25 1.77-.66-1.37-.57-2.45.91 1.08 2.38zm-12.93-6.04l.88-2.15-2.71 1.25 1.98-4.77-1.41-.58-1.97 4.74-1.03-2.76-.88 2.14 1.42 3.83 3.72-1.7zm29.25-12.15l.57 1.38.67-1.79 1.26 3.05.9-.38-1.25-3.03 1.71.78-.57-1.36-2.37-1.1-.92 2.45zm-4.87-13.41l2.14-.89-2.79-1.04 4.76-1.97-.58-1.41-4.74 1.96 1.22-2.69-2.14.89-1.71 3.72 3.84 1.43zm29.27 12.1l-.56 1.37 1.73-.8-1.26 3.05.9.38 1.26-3.04.66 1.77.56-1.37-.9-2.45-2.39 1.09zm6.05-12.94l2.14.89-1.24-2.71 4.76 1.97.59-1.41-4.74-1.96 2.76-1.04-2.14-.88-3.83 1.42 1.7 3.72zm7.59 22.27l-1.18.91 1.91.18-2.63 2.01.6.78 2.61-2.01-.32 1.86 1.18-.9.44-2.58-2.61-.25zM100 35.1l1.42 1.84.27-2.96 3.14 4.08 1.22-.92-3.13-4.07 2.91.48-1.41-1.83-4.03-.69-.39 4.07zm-4.11 31.41l-1.47-.19 1.22 1.47-3.28-.44-.13.98 3.26.43-1.53 1.09 1.47.19 2.13-1.51-1.67-2.02zM109.95 69l-.3 2.3 2.3-1.9-.68 5.11 1.52.2.67-5.09 1.71 2.41.3-2.3-2.37-3.34-3.15 2.61zM84.83 88.31l-.9-1.18-.18 1.9-2.01-2.62-.78.59 2.01 2.61-1.87-.31.91 1.17 2.58.44.24-2.6zm8.18 11.7l-1.83 1.41 2.96.28-4.09 3.14.93 1.21 4.07-3.12-.49 2.9 1.84-1.41.69-4.03-4.08-.38zm-31.4-4.12l.19-1.47-1.47 1.22.43-3.27-.97-.13-.43 3.26-1.09-1.54-.2 1.47 1.52 2.13 2.02-1.67zm-2.5 14.06l-2.29-.3 1.9 2.29-5.12-.66-.19 1.51 5.08.67-2.4 1.71 2.3.3 3.34-2.36-2.62-3.16zm-19.3-25.11l1.18-.91-1.9-.17 2.62-2.02-.6-.77-2.6 2 .31-1.86-1.17.9-.44 2.58 2.6.25zm-11.7 8.18l-1.41-1.84-.28 2.97-3.14-4.1-1.21.94 3.12 4.07-2.91-.5 1.42 1.84 4.03.69.38-4.07zm4.11-31.41l1.48.19-1.22-1.47 3.27.43.13-.96-3.26-.43 1.54-1.1-1.47-.19-2.13 1.51 1.66 2.02zm-14.05-2.49l.3-2.3-2.3 1.91.67-5.12-1.51-.2-.67 5.09-1.72-2.41-.29 2.3 2.36 3.34 3.16-2.61zm25.11-19.3l.91 1.17.17-1.9 2.01 2.62.78-.6-2-2.6 1.86.31-.9-1.17-2.58-.44-.25 2.61zM35.1 28.11l1.84-1.4-2.97-.28 4.09-3.14-.93-1.21-4.07 3.11.49-2.91-1.83 1.42-.7 4.03 4.08.38zm31.41 4.12l-.2 1.47 1.47-1.22-.43 3.27.98.13.42-3.25 1.1 1.53.19-1.47-1.51-2.13-2.02 1.67zM69 18.17l2.3.3-1.9-2.29 5.11.66.19-1.51-5.08-.67 2.4-1.71-2.29-.3-3.34 2.37L69 18.17zm6.92 5.38l-1.79-.48 1.27 2.02-3.99-1.07-.31 1.19 3.96 1.06-2.09 1.11 1.8.48 2.89-1.54-1.74-2.77z"/></svg>